<svg width="95" height="100" viewBox="0 0 95 100" fill="none" xmlns="http://www.w3.org/2000/svg">
<path d="M3.33301 3.33333L14.0915 7.13046C18.2562 8.60036 21.0413 12.5368 21.0413 16.9533V39.7917C21.0413 54.174 32.7006 65.8333 47.083 65.8333H66.3538C80.4486 65.8333 91.8747 54.4073 91.8747 40.3125C91.8747 26.2178 80.4486 14.7917 66.3538 14.7917H38.7497M39.7913 86.6667C39.7913 92.4198 35.1276 97.0833 29.3747 97.0833C23.6217 97.0833 18.958 92.4198 18.958 86.6667C18.958 80.9135 23.6217 76.25 29.3747 76.25C35.1276 76.25 39.7913 80.9135 39.7913 86.6667ZM91.8747 86.6667C91.8747 92.4198 87.2111 97.0833 81.458 97.0833C75.7049 97.0833 71.0413 92.4198 71.0413 86.6667C71.0413 80.9135 75.7049 76.25 81.458 76.25C87.2111 76.25 91.8747 80.9135 91.8747 86.6667Z" stroke="#67B1B0" stroke-width="5" stroke-linecap="round"/>
</svg>
