<svg width="32" height="32" viewBox="0 0 32 32" fill="none" xmlns="http://www.w3.org/2000/svg">
<path d="M30.0643 14.161C31.3698 13.2116 30.6983 11.1463 29.0841 11.1463H22.7429C21.2883 11.1463 20.0016 10.2029 19.564 8.81559L17.4664 2.16534C16.9764 0.611554 14.7776 0.611554 14.2874 2.16534L12.19 8.81559C11.7524 10.2029 10.4657 11.1463 9.01103 11.1463H2.66987C1.05565 11.1463 0.384133 13.2116 1.68972 14.161L7.33732 18.2675C8.55783 19.1548 9.02988 20.7516 8.48817 22.16L6.03815 28.5298C5.44208 30.0796 7.2312 31.4526 8.57402 30.476L13.9164 26.5906C15.0853 25.7405 16.6688 25.7405 17.8376 26.5906L23.18 30.476C24.5228 31.4526 26.312 30.0796 25.7158 28.5298L23.2658 22.16C22.7241 20.7516 23.1961 19.1548 24.4166 18.2675L30.0643 14.161Z" fill="#FFB800" stroke="#FFB800" stroke-width="2" stroke-linecap="round"/>
</svg>
