<svg width="30" height="30" viewBox="0 0 30 30" fill="none" xmlns="http://www.w3.org/2000/svg">
<path d="M3.75 3.75L6.33205 4.66131C7.33157 5.01409 8 5.95882 8 7.01879V12.5C8 15.9517 10.7982 18.75 14.25 18.75H18.875C22.2578 18.75 25 16.0078 25 12.625C25 9.24226 22.2578 6.5 18.875 6.5H12.25M12.5 23.75C12.5 25.1307 11.3807 26.25 10 26.25C8.61929 26.25 7.5 25.1307 7.5 23.75C7.5 22.3693 8.61929 21.25 10 21.25C11.3807 21.25 12.5 22.3693 12.5 23.75ZM25 23.75C25 25.1307 23.8807 26.25 22.5 26.25C21.1193 26.25 20 25.1307 20 23.75C20 22.3693 21.1193 21.25 22.5 21.25C23.8807 21.25 25 22.3693 25 23.75Z" stroke="black" stroke-width="2" stroke-linecap="round"/>
</svg>
