<svg width="24" height="24" viewBox="0 0 24 24" fill="none" xmlns="http://www.w3.org/2000/svg">
<path d="M0.75 12.0565C0.75 17.1351 4.13168 21.4224 8.75055 22.8908C9.49285 23.1268 10.2006 22.534 10.2006 21.7551V15.8472C10.2006 15.5021 9.92088 15.2222 9.57563 15.2222H8.01319C7.668 15.2222 7.38819 14.9425 7.38819 14.5972V12.6814C7.38819 12.3363 7.668 12.0564 8.01319 12.0564H9.57563C9.92088 12.0564 10.2006 11.7766 10.2006 11.4314V9.569C10.2006 6.74236 12.0006 5.15945 14.5881 5.15945C15.2015 5.15945 15.8831 5.22804 16.5266 5.31179C16.8349 5.3519 17.0631 5.61639 17.0631 5.92725V7.64375C17.0631 7.98893 16.7834 8.26875 16.4381 8.26875H15.6006C14.2506 8.26875 13.9131 8.94714 13.9131 9.85162V11.4314C13.9131 11.7766 14.193 12.0564 14.5381 12.0564H16.1615C16.5461 12.0564 16.8394 12.4004 16.7787 12.7801L16.4724 14.696C16.4239 14.9991 16.1622 15.2222 15.8551 15.2222H14.5353C14.1913 15.2222 13.9119 15.5003 13.9103 15.8443L13.8821 21.7479C13.8784 22.5292 14.5876 23.1259 15.3319 22.888C19.9347 21.417 23.25 17.132 23.25 12.0565C23.25 5.83794 18.1875 0.75 12 0.75C5.8125 0.75 0.75 5.83794 0.75 12.0565Z" stroke="#FF7269" stroke-width="1.5" stroke-linecap="round"/>
</svg>
