<svg width="38" height="37" viewBox="0 0 38 37" fill="none" xmlns="http://www.w3.org/2000/svg">
<path d="M1.125 5.79167L4.94604 7.01337C6.36594 7.46733 7.41311 8.63006 7.67507 10.0435L9.9178 22.1439C10.2643 24.0132 11.9587 25.375 13.9381 25.375H29.496C31.3147 25.375 32.9142 24.2213 33.4189 22.5454L36.6149 11.9337M21.5417 1.875L21.5419 17.5417M21.5419 17.5417L15.4167 11.9337M21.5419 17.5417L27.6667 11.9339M15.4167 32.2292C15.4167 33.8515 14.0455 35.1667 12.3542 35.1667C10.6628 35.1667 9.29167 33.8515 9.29167 32.2292C9.29167 30.6069 10.6628 29.2917 12.3542 29.2917C14.0455 29.2917 15.4167 30.6069 15.4167 32.2292ZM31.75 32.2292C31.75 33.8515 30.3788 35.1667 28.6875 35.1667C26.9962 35.1667 25.625 33.8515 25.625 32.2292C25.625 30.6069 26.9962 29.2917 28.6875 29.2917C30.3788 29.2917 31.75 30.6069 31.75 32.2292Z" stroke="#C03B32" stroke-width="2" stroke-linecap="round"/>
</svg>
