<svg width="24" height="24" viewBox="0 0 24 24" fill="none" xmlns="http://www.w3.org/2000/svg">
<path d="M17.9156 7.38281C17.7921 7.38107 17.6699 7.35726 17.5547 7.3125C17.4992 7.28913 17.4458 7.26089 17.3953 7.22813C17.3435 7.19345 17.2949 7.15423 17.25 7.11094C17.0754 6.93344 16.9777 6.6943 16.9781 6.44531C16.9773 6.38386 16.9836 6.32251 16.9969 6.2625C17.0068 6.20278 17.0242 6.14453 17.0484 6.08906C17.0717 6.032 17.0999 5.9771 17.1328 5.925C17.168 5.87501 17.2072 5.82798 17.25 5.78438C17.2949 5.74111 17.3435 5.70189 17.3953 5.66719C17.4458 5.63426 17.4992 5.60587 17.5547 5.58234C17.6124 5.55879 17.672 5.53997 17.7328 5.52609C17.8838 5.49671 18.0398 5.5049 18.1869 5.54994C18.334 5.59498 18.4679 5.67548 18.5766 5.78438C18.6206 5.8269 18.6599 5.87405 18.6937 5.925C18.728 5.9771 18.7578 6.03198 18.7828 6.08906C18.8048 6.14534 18.822 6.20336 18.8344 6.2625C18.8452 6.32289 18.8514 6.38399 18.8531 6.44531C18.8535 6.56907 18.8293 6.69166 18.7818 6.80595C18.7343 6.92023 18.6645 7.02391 18.5766 7.11094C18.534 7.15512 18.4867 7.19443 18.4355 7.22813C18.3835 7.26099 18.3288 7.28923 18.2719 7.3125C18.2164 7.33675 18.1581 7.35407 18.0984 7.36406C18.0384 7.37731 17.9771 7.3836 17.9156 7.38281ZM12 17.1253C10.9862 17.1253 9.99516 16.8247 9.15222 16.2614C8.30928 15.6982 7.65229 14.8976 7.26435 13.961C6.87641 13.0243 6.77493 11.9937 6.97274 10.9994C7.17056 10.0051 7.65879 9.09173 8.37569 8.37489C9.09259 7.65806 10.006 7.16991 11.0003 6.97218C11.9946 6.77446 13.0253 6.87603 13.9619 7.26406C14.8985 7.65209 15.699 8.30915 16.2622 9.15214C16.8253 9.99513 17.1259 10.9862 17.1258 12C17.1243 13.359 16.5838 14.6619 15.6228 15.6228C14.6619 16.5838 13.359 17.1238 12 17.1253ZM12 8.28C11.2642 8.27991 10.545 8.498 9.93315 8.90671C9.32134 9.31541 8.84446 9.89636 8.56283 10.5761C8.2812 11.2558 8.20747 12.0038 8.35095 12.7254C8.49444 13.4471 8.8487 14.11 9.36893 14.6303C9.88916 15.1506 10.552 15.5049 11.2736 15.6485C11.9952 15.7921 12.7432 15.7184 13.423 15.4369C14.1028 15.1553 14.6838 14.6785 15.0926 14.0668C15.5013 13.455 15.7195 12.7358 15.7195 12C15.7185 11.0138 15.3264 10.0682 14.629 9.37082C13.9317 8.67342 12.9862 8.28112 12 8.28Z" fill="#FF7269"/>
<path d="M9.92062 12.7031C9.73414 12.7031 9.5553 12.629 9.42344 12.4972C9.29158 12.3653 9.2175 12.1865 9.2175 12C9.21818 11.4237 9.39756 10.8617 9.73093 10.3916C10.0643 9.92148 10.5353 9.5663 11.0789 9.375C11.1665 9.34242 11.2596 9.32761 11.353 9.33145C11.4463 9.33529 11.538 9.35769 11.6226 9.39735C11.7072 9.43701 11.783 9.49313 11.8457 9.56243C11.9083 9.63173 11.9565 9.71283 11.9875 9.80097C12.0185 9.88912 12.0316 9.98256 12.026 10.0758C12.0204 10.1691 11.9963 10.2603 11.9551 10.3441C11.9139 10.428 11.8564 10.5028 11.786 10.5642C11.7155 10.6255 11.6335 10.6722 11.5448 10.7016C11.2759 10.7962 11.043 10.9719 10.878 11.2045C10.7131 11.437 10.6242 11.7149 10.6237 12C10.6237 12.1865 10.5497 12.3653 10.4178 12.4972C10.2859 12.629 10.1071 12.7031 9.92062 12.7031Z" fill="#FF7269"/>
<path d="M15.2812 23.0156H8.71875C6.66823 23.0131 4.7024 22.1975 3.25246 20.7475C1.80252 19.2976 0.986856 17.3318 0.984375 15.2812V8.71875C0.986856 6.66823 1.80252 4.7024 3.25246 3.25246C4.7024 1.80252 6.66823 0.986856 8.71875 0.984375H15.2812C17.3318 0.986856 19.2976 1.80252 20.7475 3.25246C22.1975 4.7024 23.0131 6.66823 23.0156 8.71875V15.2812C23.0131 17.3318 22.1975 19.2976 20.7475 20.7475C19.2976 22.1975 17.3318 23.0131 15.2812 23.0156ZM8.71875 2.39062C7.041 2.39249 5.4325 3.05979 4.24615 4.24615C3.05979 5.4325 2.39249 7.041 2.39062 8.71875V15.2812C2.39249 16.959 3.05979 18.5675 4.24615 19.7539C5.4325 20.9402 7.041 21.6075 8.71875 21.6094H15.2812C16.959 21.6075 18.5675 20.9402 19.7539 19.7539C20.9402 18.5675 21.6075 16.959 21.6094 15.2812V8.71875C21.6075 7.041 20.9402 5.4325 19.7539 4.24615C18.5675 3.05979 16.959 2.39249 15.2812 2.39062H8.71875Z" fill="#FF7269"/>
</svg>
