<svg width="24" height="22" viewBox="0 0 24 22" fill="none" xmlns="http://www.w3.org/2000/svg">
<path d="M7.8275 20.375C5.35328 20.3774 2.92991 19.6603 0.838601 18.3079C0.816451 18.2936 0.828863 18.2591 0.855088 18.2619C1.18614 18.2975 1.5188 18.315 1.8517 18.3145C3.90785 18.3179 5.90604 17.6205 7.5322 16.333C7.55051 16.3185 7.54058 16.289 7.51723 16.2883C6.57806 16.2555 5.67029 15.9303 4.91531 15.3549C4.15295 14.7739 3.58398 13.9666 3.28529 13.043C3.27945 13.025 3.29521 13.0074 3.31386 13.0109C3.58643 13.0622 3.863 13.0881 4.14018 13.0884C4.51709 13.0884 4.89245 13.0414 5.258 12.9484C5.28341 12.942 5.28245 12.9058 5.25691 12.8999C4.25215 12.6679 3.35073 12.0981 2.6972 11.2796C2.02191 10.434 1.65289 9.37488 1.6527 8.28206C1.6527 8.27631 1.6527 8.27066 1.6527 8.26511C1.6527 8.24592 1.67345 8.23388 1.6902 8.24323C2.29641 8.5815 2.96905 8.7755 3.65808 8.81088C3.68304 8.81213 3.69378 8.77988 3.67341 8.76538C2.73293 8.0956 2.06783 7.0907 1.80915 5.94514C1.54681 4.78338 1.72199 3.56344 2.29881 2.52889C2.30745 2.5134 2.32904 2.51172 2.34008 2.5256C3.49453 3.97437 4.93151 5.16025 6.55916 6.00715C8.18781 6.85458 9.97115 7.34376 11.7948 7.44353C11.8114 7.44443 11.8242 7.42916 11.8205 7.41295C11.5965 6.40662 11.6993 5.35242 12.114 4.4111C12.5332 3.45969 13.2474 2.67692 14.1457 2.1846C15.0438 1.69227 16.0754 1.51799 17.0803 1.68886C18.0805 1.85894 18.9982 2.36152 19.692 3.11889C19.6979 3.12539 19.7069 3.12831 19.7155 3.12654C20.7208 2.92007 21.6857 2.54444 22.5712 2.01499C22.5909 2.00314 22.6149 2.02202 22.6077 2.04394C22.2675 3.07535 21.5923 3.95542 20.6959 4.53754C20.6733 4.55216 20.686 4.58778 20.7127 4.58414C21.5597 4.46825 22.3872 4.23282 23.1714 3.8845C23.1943 3.87435 23.2164 3.90024 23.2025 3.92108C22.5926 4.83785 21.8327 5.63988 20.956 6.2916C20.9494 6.29659 20.9455 6.3046 20.946 6.31295C20.9558 6.51101 20.9599 6.7105 20.9599 6.91143C20.9599 13.1633 16.3142 20.375 7.82165 20.375" stroke="#FF7269" stroke-width="1.5" stroke-linecap="round"/>
</svg>
