<svg width="32" height="32" viewBox="0 0 32 32" fill="none" xmlns="http://www.w3.org/2000/svg">
<path d="M30.1872 14.1976C31.4927 13.2482 30.8212 11.1829 29.207 11.1829H22.8659C21.4112 11.1829 20.1245 10.2395 19.6869 8.85221L17.5894 2.20196C17.0994 0.648175 14.9005 0.648175 14.4104 2.20196L12.3129 8.85221C11.8754 10.2395 10.5887 11.1829 9.13396 11.1829H2.79279C1.17857 11.1829 0.507058 13.2482 1.81264 14.1976L7.46024 18.3041C8.68076 19.1914 9.15281 20.7882 8.61109 22.1966L6.16107 28.5664C5.56501 30.1162 7.35412 31.4892 8.69694 30.5126L14.0394 26.6272C15.2082 25.7771 16.7917 25.7771 17.9605 26.6272L23.3029 30.5126C24.6457 31.4892 26.4349 30.1162 25.8387 28.5664L23.3887 22.1966C22.847 20.7882 23.319 19.1914 24.5395 18.3041L30.1872 14.1976Z" stroke="#FFB800" stroke-width="2" stroke-linecap="round"/>
</svg>
